<svg width="86" height="86" viewBox="0 0 86 86" fill="none" xmlns="http://www.w3.org/2000/svg">
<path d="M3 42.9997C3 20.9085 20.9085 3 42.9997 3C65.0909 3 82.9994 20.9085 82.9994 42.9997C82.9994 65.0909 65.0909 82.9994 42.9997 82.9994C20.9085 82.9994 3 65.0909 3 42.9997Z" stroke="#0C0B12" stroke-width="4.99996"/>
<path d="M41.8019 35.5134L41.8858 36.8975L40.4868 36.728C35.3947 36.0783 30.946 33.8751 27.1689 30.1748L25.3223 28.3388L24.8466 29.6946C23.8394 32.717 24.4829 35.9089 26.5813 38.0556C27.7005 39.2419 27.4487 39.4114 25.5181 38.7053C24.8466 38.4793 24.2591 38.3098 24.2031 38.3946C24.0072 38.5923 24.6787 41.1627 25.2103 42.1796C25.9378 43.5919 27.4207 44.976 29.0435 45.7951L30.4144 46.4448L28.7916 46.4731C27.2248 46.4731 27.1689 46.5013 27.3367 47.0945C27.8963 48.9305 30.1067 50.8795 32.5688 51.7269L34.3035 52.3201L32.7926 53.224C30.5543 54.5233 27.9243 55.2577 25.2943 55.3142C24.0352 55.3425 23 55.4554 23 55.5402C23 55.8227 26.4134 57.4045 28.3999 58.0259C34.3595 59.8619 41.4381 59.071 46.7541 55.9356C50.5313 53.7042 54.3084 49.2695 56.0711 44.976C57.0224 42.688 57.9737 38.5075 57.9737 36.502C57.9737 35.2027 58.0576 35.0332 59.6244 33.4797C60.5478 32.5758 61.4151 31.5871 61.583 31.3047C61.8628 30.768 61.8348 30.768 60.4079 31.2482C58.0296 32.0956 57.6939 31.9826 58.869 30.7115C59.7364 29.8076 60.7716 28.1693 60.7716 27.6891C60.7716 27.6044 60.3519 27.7456 59.8763 27.9998C59.3726 28.2823 58.2535 28.706 57.4141 28.9602L55.9032 29.4404L54.5323 28.5083C53.7768 27.9998 52.7136 27.4349 52.1541 27.2654C50.7271 26.87 48.5448 26.9265 47.2577 27.3784C43.7604 28.6495 41.55 31.9261 41.8019 35.5134Z" fill="#0C0B12"/>
</svg>
