<svg width="86" height="86" viewBox="0 0 86 86" fill="none" xmlns="http://www.w3.org/2000/svg">
<path d="M3 43C3 20.9086 20.9086 3 43 3C65.0914 3 83 20.9086 83 43C83 65.0914 65.0914 83 43 83C20.9086 83 3 65.0914 3 43Z" stroke="#0C0B12" stroke-width="5"/>
<path d="M31.268 36.1299H22.2031V63.3661H31.268V36.1299Z" fill="#0C0B12"/>
<path d="M31.8659 27.7045C31.8071 25.034 29.8974 23 26.7964 23C23.6953 23 21.668 25.034 21.668 27.7045C21.668 30.3197 23.6354 32.4122 26.6787 32.4122H26.7366C29.8974 32.4122 31.8659 30.3197 31.8659 27.7045Z" fill="#0C0B12"/>
<path d="M63.959 47.7496C63.959 39.3838 59.487 35.4902 53.5219 35.4902C48.709 35.4902 46.5542 38.1338 45.3511 39.9883V36.1305H36.2852C36.4046 38.6862 36.2852 63.3667 36.2852 63.3667H45.3511V48.1558C45.3511 47.3418 45.41 46.5298 45.6496 45.947C46.3048 44.3208 47.7965 42.6371 50.3008 42.6371C53.5824 42.6371 54.8941 45.1346 54.8941 48.7946V63.366H63.9586L63.959 47.7496Z" fill="#0C0B12"/>
</svg>
