<svg width="87" height="86" viewBox="0 0 87 86" fill="none" xmlns="http://www.w3.org/2000/svg">
<path d="M5.90887 43.001C5.90887 22.1877 22.7814 5.31512 43.5947 5.31512V0.290344C20.0063 0.290344 0.884094 19.4125 0.884094 43.001H5.90887ZM43.5947 5.31512C64.408 5.31512 81.2806 22.1877 81.2806 43.001H86.3054C86.3054 19.4125 67.1832 0.290344 43.5947 0.290344V5.31512ZM81.2806 43.001C81.2806 63.8143 64.408 80.6868 43.5947 80.6868V85.7116C67.1832 85.7116 86.3054 66.5894 86.3054 43.001H81.2806ZM43.5947 80.6868C22.7814 80.6868 5.90887 63.8143 5.90887 43.001H0.884094C0.884094 66.5894 20.0063 85.7116 43.5947 85.7116V80.6868Z" fill="#0C0B12"/>
<path d="M30.1608 24.2491L30.16 24.2494C28.9506 24.7191 27.9558 25.3287 26.9404 26.3444L26.9397 26.3451C25.9237 27.3604 25.3137 28.3556 24.842 29.5659L24.8419 29.566C24.3849 30.7385 24.0542 32.1138 23.9586 34.236L30.1608 24.2491ZM30.1608 24.2491C31.3335 23.793 32.7091 23.4625 34.8333 23.3652L30.1608 24.2491ZM26.9386 59.6565L26.9395 59.6574C27.955 60.674 28.9501 61.2851 30.1577 61.7543L30.1578 61.7544C31.3316 62.2106 32.7078 62.541 34.8315 62.6383C37.0805 62.7407 37.7812 62.7661 43.5946 62.7661C49.409 62.7661 50.1078 62.7407 52.3568 62.6383C54.4812 62.541 55.8588 62.2105 57.0324 61.7544L57.0327 61.7542C58.2399 61.2853 59.2333 60.6745 60.2493 59.6574L60.2505 59.6563C61.2658 58.6417 61.8756 57.6472 62.3472 56.438C62.8011 55.2631 63.1317 53.8858 63.2316 51.7641C63.3327 49.5147 63.3594 48.814 63.3594 43.0018C63.3594 37.1905 63.3327 36.4873 63.2317 34.2388C63.1318 32.1151 62.8011 30.7379 62.347 29.5633C61.8755 28.3539 61.2656 27.3595 60.2505 26.3451L60.25 26.3446C59.2326 25.3273 58.2411 24.7183 57.0324 24.2498L57.0321 24.2496C55.8549 23.793 54.4777 23.4625 52.3537 23.3652L26.9386 59.6565ZM26.9386 59.6565C25.9229 58.6411 25.3132 57.6462 24.843 56.4364M26.9386 59.6565L24.843 56.4364M24.843 56.4364C24.3872 55.2635 24.0567 53.8875 23.959 51.7632L24.843 56.4364ZM34.8338 23.3652C37.0816 23.2629 37.7833 23.2374 43.5906 23.2374L34.8338 23.3652ZM43.5973 23.2374C49.4064 23.2374 50.1055 23.2629 52.3532 23.3652L43.5973 23.2374ZM23.8312 43.0018C23.8312 37.1892 23.8579 36.4864 23.9586 34.2365L23.9589 51.7627C23.8571 49.5143 23.8312 48.8144 23.8312 43.0018Z" stroke="#0C0B12" stroke-width="3.34985"/>
<circle cx="43.5956" cy="43.0009" r="10.0496" stroke="#0C0B12" stroke-width="3.34985"/>
<circle cx="55.0478" cy="31.539" r="2.56345" fill="#0C0B12"/>
</svg>
