<svg width="86" height="86" viewBox="0 0 86 86" fill="none" xmlns="http://www.w3.org/2000/svg">
<path d="M3 43.001C3 20.8001 20.9974 2.80273 43.1982 2.80273C65.3991 2.80273 83.3965 20.8001 83.3965 43.001C83.3965 65.2019 65.3991 83.1992 43.1982 83.1992C20.9974 83.1992 3 65.2019 3 43.001Z" stroke="#0C0B12" stroke-width="5.02478"/>
<path d="M36.6558 54.6205V82.7122H49.2178V54.6205H58.5843L60.3665 43.0007H49.2178V35.4635C49.2178 32.2838 50.7723 29.1825 55.7657 29.1825H60.8376V19.29C60.8376 19.29 56.2367 18.5049 51.8401 18.5049C42.6541 18.5049 36.6558 24.0714 36.6558 34.1445V43.0007H26.4492V54.6205H36.6558Z" fill="#0C0B12"/>
</svg>
